<?xml version="1.0" encoding="UTF-8"?>
<svg id="Livello_2" data-name="Livello 2" xmlns="http://www.w3.org/2000/svg" xmlns:xlink="http://www.w3.org/1999/xlink" viewBox="0 0 300.42 219.29">
  <defs>
    <style>
      .cls-1 {
        fill: url(#Sfumatura_senza_nome_98);
      }

      .cls-1, .cls-2, .cls-3, .cls-4, .cls-5 {
        stroke-width: 0px;
      }

      .cls-2 {
        fill: url(#Sfumatura_senza_nome_98-5);
      }

      .cls-3 {
        fill: url(#Sfumatura_senza_nome_98-4);
      }

      .cls-4 {
        fill: url(#Sfumatura_senza_nome_98-3);
      }

      .cls-5 {
        fill: url(#Sfumatura_senza_nome_98-2);
      }
    </style>
    <linearGradient id="Sfumatura_senza_nome_98" data-name="Sfumatura senza nome 98" x1="136.6" y1="59.92" x2="376.86" y2="300.18" gradientUnits="userSpaceOnUse">
      <stop offset=".14" stop-color="#9fa1d1"/>
      <stop offset=".44" stop-color="#626581"/>
      <stop offset=".51" stop-color="#565874"/>
      <stop offset=".63" stop-color="#494966"/>
      <stop offset=".77" stop-color="#42405e"/>
      <stop offset=".99" stop-color="#403e5c"/>
    </linearGradient>
    <linearGradient id="Sfumatura_senza_nome_98-2" data-name="Sfumatura senza nome 98" x1="298.88" y1="215.81" x2="300.42" y2="215.81" xlink:href="#Sfumatura_senza_nome_98"/>
    <linearGradient id="Sfumatura_senza_nome_98-3" data-name="Sfumatura senza nome 98" x1="154.59" y1="41.52" x2="44.14" y2="315.61" xlink:href="#Sfumatura_senza_nome_98"/>
    <linearGradient id="Sfumatura_senza_nome_98-4" data-name="Sfumatura senza nome 98" x1="51.14" y1="2.86" x2="93.09" y2="268.34" xlink:href="#Sfumatura_senza_nome_98"/>
    <linearGradient id="Sfumatura_senza_nome_98-5" data-name="Sfumatura senza nome 98" x1="216.99" y1="-13.26" x2="170.68" y2="259.62" xlink:href="#Sfumatura_senza_nome_98"/>
  </defs>
  <g id="Livello_1-2" data-name="Livello 1">
    <g>
      <path class="cls-1" d="M300.41,216.81h-42.07l-91.18-119.28s21.16-.34,39.48-2.74l22.46,29.22c-.35.05-.54.05-.54.05l70.32,90.74,1.53,2Z"/>
      <polygon class="cls-5" points="300.42 216.81 300.41 216.81 298.88 214.81 300.42 216.81"/>
    </g>
    <path class="cls-4" d="M175.45,155.19v1.26c0,8.8-1.82,17.01-5.5,24.66-.1.22-.2.44-.32.64-3.62,7.37-8.36,13.83-14.27,19.31-3.35,3.13-7,5.89-10.94,8.26-3.18,1.93-6.54,3.63-10.11,5.08-7.94,3.25-16.32,4.88-25.12,4.88h-57.64l-26.55-34.25h83.88c6.49-.3,8.41-.37,12.08-1.73.19-.07.37-.13.54-.22,3.43-1.35,6.51-3.3,9.2-5.79,2.81-2.62,5-5.74,6.56-9.32s2.37-7.37,2.37-11.37-.81-7.79-2.37-11.37c-.64-1.45-1.36-2.81-2.19-4.1-1.19-1.9-2.61-3.63-4.24-5.22-1.03-.99-2.12-1.9-3.28-2.73,0-.02-.02-.02-.03-.03l-38.71-40.8h20.98c8.16,0,16.17,1.58,24.01,4.71,7.86,3.15,14.89,7.55,21.06,13.21,6.17,5.65,11.15,12.3,14.94,19.95,3.75,7.64,5.64,15.97,5.64,24.97Z"/>
    <path class="cls-3" d="M127.54,133.15c-1.92-1.38-4.05-2.57-6.39-3.55-3.77-1.58-7.76-2.37-11.94-2.37h-43.03c-8.38,0-16.5-1.68-24.48-5.03-7.92-3.35-14.97-7.86-21.15-13.51-6.17-5.65-11.15-12.35-14.91-20.1-3.75-7.76-5.64-16.02-5.64-24.81,0-5.97.79-11.68,2.37-17.11.76-2.57,1.7-5.1,2.81-7.55,1.06-2.34,2.24-4.59,3.55-6.76,2.93-4.93,6.51-9.44,10.73-13.51,6.06-5.85,13.12-10.46,21.16-13.81C48.7,1.67,57.33,0,66.55,0l25.77.42,25.45,34.91-51.51-1.09c-4.19,0-8.16.79-11.91,2.36-3.77,1.58-7.02,3.67-9.74,6.29-.47.45-.94.93-1.38,1.41-2.09,2.29-3.77,4.91-5.06,7.86-1.56,3.55-2.37,7.32-2.37,11.31,0,8.18,2.93,15.02,8.82,20.57,5.85,5.55,12.85,8.33,21.03,8.33h23.18l38.71,40.8Z"/>
    <path class="cls-2" d="M282.88,64.67c0,7.91-1.68,15.7-5.08,23.4-3.4,7.69-8.6,14.52-15.6,20.46-6.16,5.55-12.9,9.71-20.2,12.47-6.02,2.29-11.25,2.89-12.9,3.03l-22.46-29.22c5.28-.71,10.31-1.58,14.54-2.66,18.89-4.81,27.15-21.3,27.15-28.7s-2.67-13.85-8.02-19.3c-5.35-5.45-11.73-8.58-19.13-9.4h-60.68L134.77.45l35.18.54v.1h47.21c10.08,0,19.25,1.8,27.47,5.38,8.23,3.6,15.17,8.43,20.83,14.48,5.65,6.06,9.98,12.87,12.95,20.46,2.99,7.6,4.47,15.34,4.47,23.25Z"/>
  </g>
</svg>